PathFileType	4	(X/Y/Z)	D:\TRACE\v60_Jaco2_6-2-23\BothDRS_Motion1_7-v60.trc
DataRate	CameraRate	NumFrames	NumMarkers	Units	OrigDataRate	OrigDataStartFrame	OrigNumFrames
100.00	100.00	      24	9	mm	100.00	1	      7500
Frame#	Time	front left toe			Front right toe			aft left toe			aft right toe			Arm			FL body			FR body			AL Body			AR Body			
		X1	Y1	Z1	X2	Y2	Z2	X3	Y3	Z3	X4	Y4	Z4	X5	Y5	Z5	X6	Y6	Z6	X7	Y7	Z7	X8	Y8	Z8	X9	Y9	Z9	

1	0.000	-147.69389	19.53334	-203.85297	263.57703	18.17142	-243.18381	-99.76134	14.48143	422.91437	291.03741	18.12330	380.97327	64.91850	1209.28247	-251.95581	-31.70062	579.78583	-349.80078	128.07890	579.52167	-361.56470	40.82084	584.84265	593.91718	198.38603	579.51111	582.77832	
2	0.010	-147.70586	19.51283	-203.88924	263.61371	18.13411	-243.17435	-99.81453	14.47466	422.95294	290.99545	18.10872	380.96295	64.91662	1209.27820	-251.96019	-31.69734	579.73462	-349.74796	128.05719	579.83081	-361.95609	40.82825	584.81500	593.92548	198.41248	579.48358	582.79297	
3	0.020	-147.64311	19.44174	-203.87425	263.58234	18.15157	-243.18422	-99.78342	14.44299	422.97690	291.05469	18.13556	380.96017	64.86810	1209.28662	-252.00151	-31.72469	579.79462	-349.72754	128.06268	579.83435	-361.95831	40.82142	584.81543	593.92352	198.33633	579.48444	582.77850	
4	0.030	-147.62318	19.51558	-203.92506	263.64767	18.14687	-243.17253	-99.75387	14.42951	422.90463	291.09268	18.13138	380.97806	64.91199	1209.27368	-251.97717	-31.72929	579.78326	-349.79163	128.07733	579.80255	-361.97162	40.85226	584.80042	593.92365	198.40836	579.49213	582.79962	
5	0.040	-147.57771	19.47003	-203.89944	263.62094	18.19105	-243.16873	-99.75082	14.46666	422.95282	291.08969	18.14214	380.95905	64.89559	1209.31042	-251.97337	-31.74551	579.77130	-349.76825	128.13319	579.79858	-361.93802	40.81812	584.82660	593.89819	198.39719	579.53845	582.77258	
6	0.050	-147.60971	19.48238	-203.91966	263.59540	18.15803	-243.18420	-99.76009	14.44967	422.92444	291.10248	18.15837	380.97641	64.88413	1209.27112	-251.95525	-31.70169	579.77679	-349.75174	128.06909	579.78241	-361.96347	40.84939	584.81305	593.91742	198.42976	579.52319	582.77966	
7	0.060	-147.62137	19.46658	-203.92487	263.63696	18.15673	-243.18175	-99.77663	14.47110	422.95831	290.98029	18.06572	380.96646	64.66979	1209.25220	-251.98376	-31.75673	579.80627	-349.74796	128.01016	579.82983	-361.97665	40.81779	584.82904	593.91711	198.41734	579.49915	582.78436	
8	0.070	-147.65765	19.47321	-203.84993	263.54330	18.16528	-243.19704	-99.76681	14.40100	422.92957	290.93335	18.03957	380.95987	64.71057	1209.19409	-251.93425	-31.76012	579.79639	-349.74408	128.08784	579.80536	-361.96616	40.80756	584.80536	593.92413	197.57541	579.43280	582.78271	
9	0.080	-147.62460	19.46037	-203.90448	263.64386	18.15982	-243.16905	-99.79351	14.44140	422.92560	291.16687	18.14814	380.97739	64.92762	1209.24719	-251.96457	-31.74773	579.77051	-349.73962	128.02376	579.85559	-361.96262	40.99943	584.93073	593.93903	198.33455	579.46326	582.75708	
10	0.090	-147.63971	19.50066	-203.92516	263.56824	18.14936	-243.18060	-99.73472	14.41268	422.92068	291.13177	18.16494	380.97287	64.89008	1209.27795	-251.95001	-31.73055	579.76031	-349.73074	128.02116	579.79987	-361.97577	40.87381	584.78333	593.95117	198.36636	579.51044	582.78461	
11	0.100	-147.59769	19.43904	-203.91846	263.59671	18.14083	-243.19127	-99.75960	14.44238	422.91354	291.05341	18.08623	380.96075	64.89616	1209.29407	-251.95844	-31.77484	579.77130	-349.73529	128.00954	579.48627	-361.56683	40.87329	584.81329	593.91907	198.37347	579.51172	582.76764	
12	0.110	-147.58571	19.40953	-203.88654	263.61371	18.15720	-243.19424	-99.76490	14.43968	422.89545	291.01489	18.07642	380.97009	64.85645	1209.27234	-251.95018	-31.80992	579.80145	-349.73639	128.02434	579.81647	-361.97385	40.88852	584.79584	593.94806	197.62085	579.42548	582.81128	
13	0.120	-147.67683	19.44394	-203.86873	263.61609	18.17558	-243.18764	-99.79984	14.43451	422.89172	290.94885	18.04654	380.95984	64.81771	1209.24744	-251.97234	-31.75804	579.77374	-349.71957	127.89172	579.52240	-361.60245	40.80539	584.80072	593.92590	197.61519	579.40143	582.80969	
14	0.130	-147.66953	19.45290	-203.87529	263.57855	18.14073	-243.17299	-99.75674	14.42979	422.91016	290.96783	18.09419	380.95248	64.83731	1209.26477	-251.95012	-31.77521	579.77875	-349.73734	128.06595	579.86127	-361.93497	40.79789	584.79767	593.93182	197.60226	579.43652	582.81818	
15	0.140	-147.66081	19.50364	-203.92104	263.61826	18.15399	-243.18437	-99.75787	14.45193	422.96567	291.15042	18.16381	380.96814	64.88428	1209.27429	-251.95901	-31.75822	579.76343	-349.72153	128.01474	579.83014	-361.97122	40.83419	584.82355	593.91400	198.36092	579.46564	582.75751	
16	0.150	-147.65311	19.49314	-203.93285	263.59250	18.15475	-243.18181	-99.75441	14.41219	422.93109	291.10022	18.15788	380.97787	64.86931	1209.28516	-251.96605	-31.84967	579.79456	-349.75003	128.01530	579.79852	-361.99136	40.81648	584.81500	593.93225	198.33905	579.50891	582.78345	
17	0.160	-147.59171	19.47070	-203.89540	263.58936	18.17792	-243.18089	-99.76466	14.47435	422.90869	291.10397	18.14944	380.98346	64.85808	1209.34424	-251.98495	-31.81734	579.77722	-349.75552	127.99290	579.84015	-361.99402	40.96053	584.95831	593.92767	198.35454	579.47034	582.77521	
18	0.170	-147.64374	19.43517	-203.88077	263.57700	18.14265	-243.18698	-99.78925	14.42414	422.91202	290.99017	18.10794	380.97174	64.85209	1209.27466	-251.94630	-31.89120	579.83667	-349.74307	128.00389	579.83081	-361.96939	40.74274	584.81976	593.94586	197.57182	579.40680	582.78912	
19	0.180	-147.62134	19.39390	-203.87640	263.61945	18.18965	-243.18150	-99.77783	14.41574	422.93472	291.03540	18.10865	380.96857	64.88872	1209.30176	-251.97406	-31.81645	579.76489	-349.73822	128.02080	579.83221	-361.97409	40.78871	584.79285	593.92096	197.59114	579.39734	582.77496	
20	0.190	-147.62267	19.43886	-203.90767	263.63855	18.17062	-243.18698	-99.74655	14.43645	422.93533	291.07669	18.19844	380.99680	64.85970	1209.28662	-251.94652	-31.79214	579.75543	-349.74979	127.95843	579.84875	-361.98236	40.92348	584.94031	593.95349	198.28880	579.48096	582.76825	
21	0.200	-147.60565	19.45838	-203.92789	263.63495	18.14964	-243.18394	-99.75581	14.44711	422.91415	291.03720	18.15260	380.95172	64.85084	1209.32898	-251.95778	-31.83389	579.79382	-349.75439	127.94699	579.82080	-361.99106	40.81437	584.81970	593.93884	198.35078	579.49725	582.77258	
22	0.210	-147.63486	19.47845	-203.91837	263.57394	18.16940	-243.18925	-99.75763	14.43610	422.93555	291.07687	18.14590	380.95963	64.88428	1209.32336	-251.93233	-31.78160	579.73676	-349.74719	127.99583	579.80731	-361.97925	40.82838	584.79321	593.94556	198.35626	579.55743	582.75232	
23	0.220	-147.60056	19.42568	-203.90697	263.60281	18.18132	-243.19279	-99.77807	14.42071	422.90509	291.03467	18.12634	380.97272	64.82578	1209.29150	-251.95992	-31.85436	579.79419	-349.76892	127.98771	579.83624	-361.96829	40.94643	584.92462	593.92633	197.57120	579.42413	582.77826	
24	0.230	-147.62787	19.40373	-203.91541	263.59232	18.18570	-243.18851	-99.79414	14.42698	422.90179	290.95303	18.06385	380.95316	64.53455	1209.22168	-251.95154	-31.83515	579.75757	-349.75034	127.88766	579.87531	-361.99832	40.83099	584.78998	593.95837	197.49728	579.42743	582.79663	
